<?xml version="1.0" encoding="UTF-8"?>
<!DOCTYPE svg PUBLIC "-//W3C//DTD SVG 1.1//EN" "http://www.w3.org/Graphics/SVG/1.1/DTD/svg11.dtd">
<!-- Creator: CorelDRAW X7 -->
<svg xmlns="http://www.w3.org/2000/svg" xml:space="preserve" width="0.313331in" height="0.379992in" version="1.1" style="shape-rendering:geometricPrecision; text-rendering:geometricPrecision; image-rendering:optimizeQuality; fill-rule:evenodd; clip-rule:evenodd"
viewBox="0 0 313 380"
 xmlns:xlink="http://www.w3.org/1999/xlink">
 <defs>
  <style type="text/css">
   <![CDATA[
    .fil0 {fill:#E8C26F;fill-rule:nonzero}
   ]]>
  </style>
 </defs>
 <g id="Layer_x0020_1">
  <metadata id="CorelCorpID_0Corel-Layer"/>
  <path class="fil0" d="M9 74l295 0 5 0 0 5 0 88 0 5 0 26 0 5 0 24 0 148 0 5 -5 0 -147 0 -31 0 -10 0 -24 0 -4 0 -5 0 -28 0 -3 0 -5 0 -38 0 -5 0 0 -5 0 -118 0 -5 0 -20 0 -128 0 -25 0 -5 5 0zm5 148l26 0 0 -90 0 -18 -26 0 0 108zm35 0l26 0 0 -81 -26 0 0 81zm36 0l24 0 0 -95 -24 0 0 5 0 4 0 86zm33 0l55 0 0 -24 0 -5 5 0 33 0 0 -21 0 -5 5 0 84 0 0 -83 -286 0 0 20 30 0 5 0 0 5 0 23 26 0 0 -9 0 -5 5 0 33 0 5 0 0 5 0 99zm65 0l117 0 0 -19 -89 0 -28 0 0 19zm-10 10l-55 0 0 0 -5 0 -28 0 -5 0 -5 0 -26 0 -5 0 -4 0 -26 0 0 20 36 0 5 0 0 5 0 12 28 0 0 -14 0 -4 5 0 33 0 5 0 0 4 0 14 26 0 5 0 0 4 0 12 22 -13 4 -3 2 5 48 80 2 4 -4 3 -16 9 85 0 0 -138 -122 0 -5 0 0 0zm25 138l-41 -70 0 70 41 0zm-18 -87l-17 9 43 72 16 -9 -42 -72zm-33 -5l-21 0 0 92 21 0 0 -92zm-31 -18l-24 0 0 9 0 4 0 97 24 0 0 -97 0 -4 0 -9zm-33 18l-26 0 0 92 26 0 0 -92zm-38 -16l-31 0 0 108 31 0 0 -108zm255 -85l-80 0 0 16 80 0 0 -16z"/>
 </g>
</svg>
