<?xml version="1.0" encoding="UTF-8"?>
<!DOCTYPE svg PUBLIC "-//W3C//DTD SVG 1.1//EN" "http://www.w3.org/Graphics/SVG/1.1/DTD/svg11.dtd">
<!-- Creator: CorelDRAW X7 -->
<svg  xml:space="preserve" width="90px" height="114px" version="1.1" style="shape-rendering:geometricPrecision; text-rendering:geometricPrecision; image-rendering:optimizeQuality; fill-rule:evenodd; clip-rule:evenodd"
viewBox="0 0 313 380"
 xmlns:xlink="http://www.w3.org/1999/xlink">
 <defs>
  <style type="text/css">
   <![CDATA[
    .fil0 {fill:#E8C26F;fill-rule:nonzero}
   ]]>
  </style>
 </defs>
 <g id="Layer_x0020_1">
  <metadata id="CorelCorpID_0Corel-Layer"/>
  <g id="_771005888">
   <path class="fil0" d="M276 370c-10,0 -19,-6 -22,-16 0,0 0,0 0,0 -1,-2 -2,-5 -2,-8 0,-3 1,-5 2,-8 2,-6 6,-10 11,-13 4,-2 7,-2 11,-2 2,0 4,0 6,0 10,3 17,13 17,23 0,13 -10,24 -23,24zm-239 0c-13,0 -24,-11 -24,-24 0,-9 6,-18 15,-22 0,0 0,0 0,0 3,-1 6,-1 9,-1 3,0 5,0 8,1 6,2 12,7 14,14 1,3 2,5 2,8 0,3 -1,6 -2,8 0,0 0,0 0,0 -3,10 -12,16 -22,16zm-24 -259c0,-13 11,-23 24,-23 10,0 19,6 22,16 1,2 2,5 2,7 0,3 -1,6 -2,9l0 0c-3,7 -8,11 -14,14 -3,1 -5,1 -8,1 -3,0 -6,-1 -9,-2 0,0 0,0 0,0 -9,-3 -15,-12 -15,-22zm188 1c0,3 -2,5 -5,5l-126 0c0,-2 1,-4 1,-6 0,-1 -1,-2 -1,-4l126 0c3,0 5,2 5,5zm-112 109c3,0 5,3 5,5 0,3 -2,5 -5,5l-43 0c-3,0 -5,3 -5,5l0 77c-1,0 -3,0 -4,0 -2,0 -4,0 -6,0l0 -168c2,0 4,0 6,0 1,0 3,0 4,0l0 72c0,2 2,4 5,4l43 0zm57 120c3,0 5,-2 5,-5l0 -54c0,-2 2,-5 5,-5 3,0 5,3 5,5l0 54c0,3 2,5 5,5l77 0c-1,2 -1,4 -1,5 0,2 0,4 1,5l-173 0c0,-1 1,-3 1,-5 0,-1 -1,-3 -1,-5l76 0zm127 -170c3,0 5,2 5,5l0 137c-1,0 -1,0 -2,0 -3,0 -5,0 -8,1l0 -138c0,-3 2,-5 5,-5zm15 144l0 -139c0,-8 -7,-15 -15,-15 -8,0 -15,7 -15,15l0 142c-5,3 -10,8 -12,13l-75 0 0 -49c0,-8 -7,-15 -15,-15 -8,0 -15,7 -15,15l0 49 -74 0c-3,-7 -9,-12 -16,-15l0 -75 38 0c9,0 15,-6 15,-15 0,-8 -6,-14 -15,-14l-38 0 0 -70c7,-3 12,-8 16,-15l129 0c8,0 15,-7 15,-15 0,-8 -7,-15 -15,-15l-129 0c-5,-12 -17,-19 -30,-19 -19,0 -34,15 -34,33 0,13 7,24 18,30l0 175c-11,6 -18,18 -18,30 0,19 15,34 34,34 13,0 24,-8 30,-19l179 0c5,11 17,19 30,19 18,0 33,-15 33,-34 0,-14 -8,-26 -21,-31z"/>
   <path class="fil0" d="M274 104c-5,-4 -11,-7 -18,-7 -7,0 -13,3 -18,7l-75 75c-1,1 -1,1 -1,2l-17 47c0,0 0,1 0,1l0 0c0,2 0,3 1,3 1,1 2,2 3,2 0,0 1,0 1,0l43 -14c0,0 1,0 1,-1l80 -79c5,-5 7,-11 7,-18 0,-7 -2,-13 -7,-18zm-86 109l-16 5c-1,-3 -3,-5 -5,-7 -1,-2 -3,-3 -5,-4l7 -20 10 0 0 8c0,3 2,5 4,5l7 0 -2 13zm62 -62l-52 52 2 -7c0,-1 0,-2 -1,-3 -1,-1 -2,-2 -3,-2l-9 0 0 -9c0,-2 -2,-4 -4,-4l-7 0 51 -50 0 0c3,-3 7,-5 12,-5 4,0 8,2 11,5 4,3 5,7 5,11 0,5 -1,9 -5,12zm18 -17l-4 4c-1,-6 -3,-12 -8,-16 -4,-5 -10,-7 -16,-8l4 -3 0 -1c3,-3 8,-4 12,-4 4,0 9,1 12,4 3,4 5,8 5,12 0,5 -2,9 -5,12zm-28 -2l-43 43c-2,2 -2,5 0,6 1,1 2,1 3,1 1,0 2,0 3,-1l43 -42c1,-2 1,-5 0,-7 -2,-1 -5,-1 -6,0z"/>
  </g>
 </g>
</svg>
