<?xml version="1.0" encoding="UTF-8"?>
<!DOCTYPE svg PUBLIC "-//W3C//DTD SVG 1.1//EN" "http://www.w3.org/Graphics/SVG/1.1/DTD/svg11.dtd">
<!-- Creator: CorelDRAW X7 -->
<svg xmlns="http://www.w3.org/2000/svg" xml:space="preserve" width="0.313331in" height="0.379992in" version="1.1" style="shape-rendering:geometricPrecision; text-rendering:geometricPrecision; image-rendering:optimizeQuality; fill-rule:evenodd; clip-rule:evenodd"
viewBox="0 0 313 380"
 xmlns:xlink="http://www.w3.org/1999/xlink">
 <defs>
  <style type="text/css">
   <![CDATA[
    .fil0 {fill:#E8C26F;fill-rule:nonzero}
   ]]>
  </style>
 </defs>
 <g id="Layer_x0020_1">
  <metadata id="CorelCorpID_0Corel-Layer"/>
  <path class="fil0" d="M192 84c-6,0 -11,5 -11,12 0,6 5,11 11,11 7,0 12,-5 12,-11 0,-7 -5,-12 -12,-12zm3 160c-8,-8 -14,-14 -14,-22 0,-18 4,-28 10,-39 1,-2 1,-5 0,-6 -1,-2 -3,-4 -6,-4l-29 0c0,-2 0,-4 0,-6 14,-2 24,-14 24,-28 0,-2 -2,-4 -4,-4 -6,0 -12,2 -17,6 2,-8 5,-16 9,-23 1,3 3,7 6,9 2,1 4,2 6,2 3,0 5,-1 7,-3l5 -4 6 4c3,3 8,3 12,1 5,-2 7,-7 6,-12l0 -6 5 -3c5,-2 8,-6 8,-10 0,-5 -3,-9 -8,-11l-5 -3 0 -6c1,-5 -1,-9 -6,-12 -4,-2 -9,-2 -12,1l-6 4 -5 -4c-4,-3 -9,-3 -13,-1 -4,3 -6,7 -6,12l1 6 -6 3c-4,2 -7,6 -7,11 0,4 3,8 7,10l3 2c-3,3 -5,7 -7,11 -4,-12 -14,-20 -27,-20 -2,0 -4,2 -4,4 0,14 12,26 26,28 -1,4 -2,8 -3,13 -7,-12 -20,-21 -35,-21 -2,0 -4,2 -4,4 0,21 16,38 36,40 0,2 0,4 0,6l-29 0c-2,0 -4,2 -5,4 -1,1 -1,4 0,6 6,11 9,21 9,39 0,8 -6,14 -13,22 -11,11 -25,24 -25,52 0,10 3,22 10,37 6,12 13,23 19,31l0 6c0,5 4,9 9,9l58 0c5,0 10,-4 10,-9l0 -6c5,-8 12,-19 18,-31 7,-15 11,-27 11,-37 0,-28 -14,-41 -25,-52zm-59 -137c8,2 14,8 16,16 -8,-2 -14,-8 -16,-16zm-16 24c15,2 26,13 28,28 -15,-2 -26,-13 -28,-28zm52 12c-2,8 -8,14 -16,16 0,0 0,-1 0,-1 2,-7 8,-13 16,-15zm46 -44l-8 4c-1,1 -2,2 -2,4l1 9c0,3 -2,4 -2,4 -1,1 -3,2 -5,0l-7 -5c-2,-1 -4,-1 -5,0l-7 5c-2,2 -4,1 -5,0 -1,0 -2,-1 -2,-4l1 -9c0,-2 -1,-3 -2,-4l-9 -4c-2,-1 -2,-3 -2,-3 0,-1 0,-3 2,-4l9 -4c1,-1 2,-2 2,-4l-1 -9c0,-3 1,-4 2,-4 0,0 1,-1 2,-1 1,0 2,0 3,1l7 5c1,1 3,1 5,0l7 -5c2,-2 4,-1 5,0 0,0 2,1 2,4l-1 9c0,2 1,3 2,4l8 4c3,1 3,3 3,4 0,0 0,2 -3,3zm-26 1c-2,0 -4,-2 -4,-4 0,-3 2,-5 4,-5 3,0 5,2 5,5 0,2 -2,4 -5,4zm-73 80c0,0 0,0 0,0 0,0 0,0 0,0l66 0c0,0 0,0 0,0 1,0 0,0 0,0 -7,14 -10,26 -10,42 0,0 0,0 0,0 1,13 6,16 16,26 10,11 23,23 23,48 0,20 -17,49 -28,64l-67 0c-11,-15 -28,-44 -28,-64 0,-25 12,-37 23,-48 10,-10 14,-13 15,-26 0,0 0,0 0,0 0,-16 -2,-28 -10,-42zm62 193l-58 0c-2,0 -3,-1 -3,-3l0 -4 65 0 0 4c0,2 -2,3 -4,3z"/>
 </g>
</svg>
