<?xml version="1.0" encoding="UTF-8"?>
<!DOCTYPE svg PUBLIC "-//W3C//DTD SVG 1.1//EN" "http://www.w3.org/Graphics/SVG/1.1/DTD/svg11.dtd">
<!-- Creator: CorelDRAW X7 -->
<svg xmlns="http://www.w3.org/2000/svg" xml:space="preserve" width="0.313331in" height="0.379992in" version="1.1" style="shape-rendering:geometricPrecision; text-rendering:geometricPrecision; image-rendering:optimizeQuality; fill-rule:evenodd; clip-rule:evenodd"
viewBox="0 0 313 380"
 xmlns:xlink="http://www.w3.org/1999/xlink">
 <defs>
  <style type="text/css">
   <![CDATA[
    .fil0 {fill:#E8C26F;fill-rule:nonzero}
   ]]>
  </style>
 </defs>
 <g id="Layer_x0020_1">
  <metadata id="CorelCorpID_0Corel-Layer"/>
  <path class="fil0" d="M192 81c-6,0 -11,5 -11,12 0,7 5,12 11,12 7,0 12,-5 12,-12 0,-7 -5,-12 -12,-12zm3 160c-8,-7 -14,-13 -14,-22 0,-18 4,-28 10,-39 1,-2 1,-4 0,-6 -1,-2 -3,-3 -6,-3l-29 0c0,-2 0,-4 0,-7 14,-2 24,-13 24,-28 0,-2 -2,-3 -4,-3 -6,0 -12,2 -17,6 2,-9 5,-17 9,-24 1,4 3,7 6,9 2,1 4,2 6,2 3,0 5,-1 7,-2l5 -4 6 4c3,3 8,3 12,0 5,-2 7,-6 6,-11l0 -7 5 -2c5,-2 8,-6 8,-11 0,-5 -3,-9 -8,-11l-5 -2 0 -7c1,-5 -1,-9 -6,-11 -4,-3 -9,-2 -12,0l-6 4 -5 -4c-4,-2 -9,-3 -13,0 -4,2 -6,6 -6,11l1 7 -6 2c-4,2 -7,6 -7,11 0,5 3,9 7,11l3 1c-3,4 -5,7 -7,11 -4,-11 -14,-20 -27,-20 -2,0 -4,2 -4,4 0,15 12,27 26,28 -1,4 -2,9 -3,13 -7,-12 -20,-20 -35,-20 -2,0 -4,1 -4,3 0,21 16,38 36,40 0,3 0,5 0,7l-29 0c-2,0 -4,1 -5,3 -1,2 -1,4 0,6 6,11 9,21 9,39 0,9 -6,15 -13,22 -11,11 -25,25 -25,52 0,10 3,23 10,37 6,12 13,24 19,31l0 6c0,5 4,10 9,10l58 0c5,0 10,-5 10,-10l0 -6c5,-7 12,-19 18,-31 7,-14 11,-27 11,-37 0,-27 -14,-41 -25,-52zm-59 -137c8,2 14,8 16,16 -8,-2 -14,-8 -16,-16zm-16 25c15,1 26,13 28,28 -15,-2 -26,-14 -28,-28zm52 12c-2,7 -8,14 -16,15 0,0 0,0 0,-1 2,-7 8,-13 16,-14zm46 -44l-8 4c-1,0 -2,2 -2,4l1 9c0,2 -2,4 -2,4 -1,0 -3,1 -5,0l-7 -6c-2,-1 -4,-1 -5,0l-7 6c-2,1 -4,0 -5,0 -1,0 -2,-2 -2,-4l1 -9c0,-2 -1,-4 -2,-4l-9 -4c-2,-1 -2,-3 -2,-4 0,-1 0,-3 2,-4l9 -4c1,0 2,-2 2,-3l-1 -10c0,-2 1,-3 2,-4 0,0 1,0 2,0 1,0 2,0 3,0l7 6c1,1 3,1 5,0l7 -6c2,-1 4,0 5,0 0,1 2,2 2,4l-1 10c0,1 1,3 2,3l8 4c3,1 3,3 3,4 0,1 0,3 -3,4zm-26 0c-2,0 -4,-2 -4,-4 0,-2 2,-4 4,-4 3,0 5,2 5,4 0,2 -2,4 -5,4zm-73 80c0,0 0,0 0,0 0,0 0,0 0,0l66 0c0,0 0,0 0,0 1,0 0,0 0,0 -7,14 -10,26 -10,42 0,0 0,0 0,0 1,13 6,17 16,27 10,10 23,22 23,47 0,21 -17,49 -28,65l-67 0c-11,-16 -28,-44 -28,-65 0,-25 12,-37 23,-47 10,-10 14,-14 15,-27 0,0 0,0 0,0 0,-16 -2,-28 -10,-42zm62 194l-58 0c-2,0 -3,-2 -3,-4l0 -3 65 0 0 3c0,2 -2,4 -4,4z"/>
  <rect class="fil0" x="20" y="374" width="272.587" height="5.36614" rx="93" ry="44"/>
 </g>
</svg>
