<?xml version="1.0" encoding="UTF-8"?>
<!DOCTYPE svg PUBLIC "-//W3C//DTD SVG 1.1//EN" "http://www.w3.org/Graphics/SVG/1.1/DTD/svg11.dtd">
<!-- Creator: CorelDRAW X7 -->
<svg xmlns="http://www.w3.org/2000/svg" xml:space="preserve" width="0.313331in" height="0.379992in" version="1.1" style="shape-rendering:geometricPrecision; text-rendering:geometricPrecision; image-rendering:optimizeQuality; fill-rule:evenodd; clip-rule:evenodd"
viewBox="0 0 313 380"
 xmlns:xlink="http://www.w3.org/1999/xlink">
 <defs>
  <style type="text/css">
   <![CDATA[
    .fil0 {fill:#E8C26F;fill-rule:nonzero}
   ]]>
  </style>
 </defs>
 <g id="Layer_x0020_1">
  <metadata id="CorelCorpID_0Corel-Layer"/>
  <path class="fil0" d="M261 373l33 0 0 -21 -33 0 0 21zm-54 -275c0,2 -2,4 -5,4 -3,0 -5,-2 -5,-4 0,-5 -1,-8 -4,-11 -3,-3 -6,-4 -11,-4l-6 0c-4,0 -7,1 -10,4 -3,3 -5,6 -5,11l0 41 103 0 3 0 0 3 0 0c0,14 -3,27 -9,39l55 0 4 0 0 3 0 165 0 3 -4 0 -12 0 0 24 0 4 -3 0 -41 0 -3 0 0 -4 0 -24 -194 0 0 24 0 4 -4 0 -41 0 -3 0 0 -4 0 -24 -12 0 -3 0 0 -3 0 -165 0 -3 3 0 56 0c-7,-12 -10,-25 -10,-39l0 0 0 -3 3 0 103 0 0 -41c0,-7 3,-13 7,-18 5,-4 11,-7 17,-7l6 0c7,0 13,3 18,7 4,5 7,11 7,18zm46 90c-2,4 -6,8 -9,11 -15,15 -35,24 -57,24l-27 0 0 122 94 0 3 0 41 0 3 0 9 0 0 -157 -57 0zm-100 35l-26 0c-22,0 -43,-9 -57,-24 -4,-3 -7,-7 -10,-11l-56 0 0 157 8 0 3 0 41 0 4 0 93 0 0 -122zm107 -77l-207 0c1,19 9,36 22,48 13,14 32,22 52,22l60 0c20,0 38,-8 52,-22 12,-12 20,-29 21,-48zm-127 147l0 0c2,0 5,-2 5,-5l0 -30c0,-3 -3,-5 -5,-5l0 0c-3,0 -5,2 -5,5l0 30c0,3 2,5 5,5zm48 0l0 0c2,0 4,-2 4,-5l0 -30c0,-3 -2,-5 -4,-5l0 0c-3,0 -5,2 -5,5l0 30c0,3 2,5 5,5zm-162 80l34 0 0 -21 -34 0 0 21z"/>
 </g>
</svg>
