<?xml version="1.0" encoding="UTF-8"?>
<!DOCTYPE svg PUBLIC "-//W3C//DTD SVG 1.1//EN" "http://www.w3.org/Graphics/SVG/1.1/DTD/svg11.dtd">
<!-- Creator: CorelDRAW X7 -->
<svg xmlns="http://www.w3.org/2000/svg" xml:space="preserve" width="0.313331in" height="0.379992in" version="1.1" style="shape-rendering:geometricPrecision; text-rendering:geometricPrecision; image-rendering:optimizeQuality; fill-rule:evenodd; clip-rule:evenodd"
viewBox="0 0 313 380"
 xmlns:xlink="http://www.w3.org/1999/xlink">
 <defs>
  <style type="text/css">
   <![CDATA[
    .fil0 {fill:#E8C26F;fill-rule:nonzero}
   ]]>
  </style>
 </defs>
 <g id="Layer_x0020_1">
  <metadata id="CorelCorpID_0Corel-Layer"/>
  <path class="fil0" d="M312 212l-61 -61c-2,-2 -5,-2 -7,0l-30 30c-1,1 -2,3 -2,4 0,1 1,2 2,3l3 3 -7 7c-5,5 -12,6 -18,3 -5,-2 -11,-3 -18,-3 -7,0 -14,1 -20,5 -3,-1 -6,-1 -8,-1 -4,0 -8,1 -12,2 -6,2 -12,1 -16,-4l-13 -12 2 -2c1,0 1,-2 1,-3 0,-1 0,-3 -1,-4l-31 -30c-2,-2 -5,-2 -7,0l-68 68c-1,2 -1,5 0,7l31 30c1,1 2,2 3,2 2,0 3,-1 4,-2l2 -2 9 9c2,2 3,5 4,8 3,16 10,30 22,42l1 1c-3,4 -5,8 -5,13 0,4 2,9 6,12 3,4 8,6 12,6 1,0 1,0 1,0 0,4 2,9 5,13 4,4 8,5 13,5 0,0 0,0 1,0 0,5 1,10 5,14 3,3 8,5 13,5 4,0 9,-2 12,-5 1,-1 1,-1 1,-1 2,0 4,1 6,1 4,0 8,-2 12,-5 1,-2 3,-4 3,-6l1 0c3,4 7,5 12,5 4,0 8,-1 12,-5 1,-1 3,-3 4,-6 3,2 6,4 9,4 5,0 9,-2 12,-5 4,-4 5,-8 5,-12 0,-2 0,-3 0,-4 3,-1 6,-2 8,-5 4,-3 5,-7 5,-12 0,-3 -1,-7 -3,-9l4 -4c12,-12 19,-26 22,-42 1,-3 2,-5 4,-7l15 -15 2 2c1,1 3,2 4,2 1,0 3,-1 3,-2l31 -30c1,-1 1,-2 1,-4 0,-1 0,-2 -1,-3zm-274 12c0,-3 -2,-5 -5,-5 -3,0 -5,2 -5,5 0,3 2,5 5,5 3,0 5,-2 5,-5zm250 -5c0,-3 -2,-5 -5,-5 -3,0 -5,2 -5,5 0,3 2,5 5,5 3,0 5,-2 5,-5zm-253 25l-23 -24 61 -60 23 23 -61 61zm61 86c-3,3 -8,3 -11,0 -2,-1 -3,-3 -3,-5 0,-3 1,-5 3,-6 1,-2 3,-2 5,-2 2,0 4,0 6,2 3,3 3,8 0,11zm19 19c-2,2 -4,2 -6,2 -2,0 -4,0 -5,-2 -4,-3 -4,-8 0,-11 1,-2 3,-3 5,-3 2,0 4,1 6,3 3,3 3,8 0,11zm18 18c-1,2 -3,3 -5,3 -3,0 -5,-1 -6,-3 -3,-3 -3,-8 0,-11 1,-1 4,-2 6,-2 2,0 4,1 5,2 3,3 3,8 0,11zm85 -38c-1,1 -3,2 -5,2 -1,0 -3,-1 -4,-2l-49 -48c-2,-2 -5,-2 -7,0 -2,1 -2,5 0,7l52 52c2,1 2,3 2,5 0,2 0,3 -2,5 -2,2 -7,2 -9,0l-9 -9c0,0 0,0 0,0 0,0 0,0 0,0l-41 -41c-2,-2 -5,-2 -7,0 -2,2 -2,5 0,7l41 41c1,1 2,3 2,4 0,2 -1,4 -2,5 -3,3 -7,3 -10,0l-44 -44c-2,-2 -5,-2 -7,0 -2,2 -2,5 0,7l32 33c0,0 1,0 1,0 1,1 2,3 2,5 0,2 -1,3 -2,5 -2,1 -3,2 -5,2 -1,0 -1,0 -2,-1 1,-5 0,-11 -5,-15 -3,-3 -8,-5 -12,-5 -1,0 -1,0 -1,0 0,-5 -1,-10 -5,-13 -3,-4 -8,-6 -13,-6 0,0 0,0 -1,0 1,-4 -1,-9 -5,-13 -4,-5 -11,-6 -17,-5l-3 -4c-10,-9 -17,-22 -19,-36 -1,-5 -4,-9 -7,-13l-9 -9 50 -50 13 13c4,4 11,7 18,7 3,0 6,-1 9,-2 1,0 2,-1 4,-1l-31 31c-4,4 -6,9 -6,14 0,6 2,11 6,15 4,4 9,5 14,5 5,0 10,-1 14,-5l16 -16 4 4c0,0 0,0 0,0l0 0 0 1c0,0 0,0 0,0l0 0c0,0 1,0 1,0l58 58c2,2 2,3 2,5 0,2 0,4 -2,5zm32 -75c-4,4 -6,8 -7,13 -2,14 -9,26 -19,36l-4 4 -31 -31c0,0 1,0 2,0 3,0 6,-1 9,-2 3,-1 4,-4 3,-7 -1,-2 -4,-4 -6,-2 -13,5 -29,-10 -30,-11 0,0 0,0 -1,0l0 -1c0,0 0,0 0,0l0 0c0,0 0,0 0,0l-4 -4 5 -5c2,-2 2,-5 0,-7 -2,-2 -5,-2 -7,0l-9 8c0,0 0,0 0,0 0,0 0,0 0,0l-19 20c-4,3 -10,3 -14,0 -2,-2 -3,-5 -3,-8 0,-2 1,-5 3,-7l33 -33c2,-1 4,-3 6,-4 5,-4 11,-5 17,-5 5,0 10,1 14,3 10,4 21,2 29,-6l7 -6 41 40 -15 15zm28 -15l-54 -54 24 -23 53 53 -23 24z"/>
 </g>
</svg>
