<?xml version="1.0" encoding="UTF-8"?>
<!DOCTYPE svg PUBLIC "-//W3C//DTD SVG 1.1//EN" "http://www.w3.org/Graphics/SVG/1.1/DTD/svg11.dtd">
<!-- Creator: CorelDRAW X7 -->
<svg xmlns="http://www.w3.org/2000/svg" xml:space="preserve" width="0.313331in" height="0.379992in" version="1.1" style="shape-rendering:geometricPrecision; text-rendering:geometricPrecision; image-rendering:optimizeQuality; fill-rule:evenodd; clip-rule:evenodd"
viewBox="0 0 313 380"
 xmlns:xlink="http://www.w3.org/1999/xlink">
 <defs>
  <style type="text/css">
   <![CDATA[
    .fil0 {fill:#E8C26F;fill-rule:nonzero}
   ]]>
  </style>
 </defs>
 <g id="Layer_x0020_1">
  <metadata id="CorelCorpID_0Corel-Layer"/>
  <path class="fil0" d="M165 369c-32,0 -63,-6 -86,-15 -21,-9 -33,-21 -33,-33 0,-11 12,-23 33,-32 23,-10 54,-15 86,-15 33,0 63,5 86,15 21,9 33,21 33,32 0,12 -12,24 -33,33 -23,9 -53,15 -86,15zm-65 -117c-15,-5 -24,-13 -24,-20 0,-7 9,-14 24,-20 18,-6 41,-10 65,-10 25,0 48,4 65,10 15,6 24,13 24,20 0,7 -9,15 -24,20 -17,7 -40,11 -65,11 -24,0 -47,-4 -65,-11zm18 -88c0,-6 6,-12 16,-17 12,-6 28,-9 44,-9 17,0 33,3 45,9 10,5 16,11 16,17 0,6 -6,13 -16,18 -12,6 -28,9 -45,9 -16,0 -32,-3 -44,-9 -10,-5 -16,-12 -16,-18zm-4 -58c0,-5 5,-10 13,-14 10,-5 22,-7 36,-7 14,0 27,2 37,7 8,4 13,9 13,14 0,4 -5,9 -13,13 -10,5 -23,7 -37,7 -14,0 -26,-2 -36,-7 -8,-4 -13,-9 -13,-13zm182 215c0,-16 -14,-31 -40,-42 -11,-5 -23,-9 -37,-11 6,-2 11,-3 15,-5 20,-8 32,-19 32,-31 0,-12 -12,-23 -32,-30 -5,-2 -11,-4 -17,-6 4,-1 7,-2 11,-4 14,-7 22,-17 22,-28 0,-11 -8,-21 -22,-28 -7,-3 -14,-5 -23,-7 12,-6 19,-14 19,-23 0,-10 -7,-18 -19,-24 -12,-6 -26,-9 -42,-9 -15,0 -30,3 -41,9 -12,6 -19,14 -19,24 0,9 7,17 19,23 4,2 8,4 12,5 -1,1 -3,1 -5,2 -14,7 -22,17 -22,28 0,11 8,21 22,28 1,0 1,1 2,1 -13,2 -25,5 -35,9 -20,7 -31,18 -31,30 0,12 11,23 31,31 5,2 10,3 15,5 -13,2 -26,6 -36,11 -26,11 -40,26 -40,42 0,17 14,32 40,43 4,2 8,3 12,5l-69 0 0 11 272 0 0 -11 -47 0c5,-2 9,-3 13,-5 26,-11 40,-26 40,-43z"/>
 </g>
</svg>
